# Blender 4.4.0
# www.blender.org
mtllib CrossButton.mtl
o Cube
v 0.500000 -0.250000 -0.750000
v 0.500000 -0.250000 0.750000
v -0.500000 -0.250000 -0.750000
v -0.500000 -0.250000 0.750000
v 0.352017 0.250000 -0.528026
v 0.500000 0.176009 -0.750000
v 0.397746 0.246379 -0.596620
v 0.438999 0.235869 -0.658499
v 0.471738 0.219500 -0.707607
v -0.192574 0.180000 -0.317932
v 0.313674 0.180000 0.190638
v 0.492757 0.198873 -0.739136
v 0.183923 0.180000 0.320389
v 0.352017 0.250000 0.528026
v 0.500000 0.176009 0.750000
v -0.322847 0.180000 -0.189867
v 0.183662 0.180000 -0.317932
v 0.397746 0.246379 0.596620
v 0.313935 0.180000 -0.189867
v 0.438999 0.235869 0.658499
v -0.192834 0.180000 0.320389
v 0.471738 0.219500 0.707607
v -0.322586 0.180000 0.190638
v 0.492757 0.198873 0.739136
v -0.352017 0.250000 -0.528026
v -0.500000 0.176009 -0.750000
v -0.397746 0.246379 -0.596620
v -0.438999 0.235869 -0.658499
v -0.471738 0.219500 -0.707607
v -0.492757 0.198873 -0.739136
v -0.352017 0.250000 0.528026
v -0.500000 0.176009 0.750000
v -0.397746 0.246379 0.596620
v -0.438999 0.235869 0.658499
v -0.471738 0.219500 0.707607
v -0.492757 0.198873 0.739136
v -0.322847 0.250000 -0.189867
v -0.231760 0.250000 0.281464
v -0.322586 0.250000 0.190638
v -0.192574 0.250000 -0.317932
v 0.183662 0.250000 -0.317932
v -0.133548 0.250000 0.000734
v -0.004456 0.250000 -0.128951
v -0.192834 0.250000 0.320389
v 0.183923 0.250000 0.320389
v 0.313674 0.250000 0.190638
v 0.124637 0.250000 0.000734
v -0.004456 0.250000 0.130715
v 0.313935 0.250000 -0.189867
v 0.222744 0.250000 -0.279513
v 0.124637 0.180000 0.000734
v 0.043677 0.180000 -0.080597
v -0.004456 0.180000 -0.128951
v -0.052454 0.180000 0.082386
v -0.133548 0.180000 0.000734
v -0.004456 0.180000 0.130715
v 0.043543 0.180000 0.082386
v -0.052589 0.180000 -0.080597
v -0.004456 0.180000 0.001008
vn -0.0000 -0.0000 1.0000
vn -1.0000 -0.0000 -0.0000
vn -0.0000 -1.0000 -0.0000
vn -0.0000 1.0000 -0.0000
vn 1.0000 -0.0000 -0.0000
vn -0.0000 0.9986 0.0527
vn -0.0000 0.9859 0.1674
vn -0.0000 0.9487 0.3162
vn -0.0000 0.8368 0.5475
vn -0.0000 0.4292 0.9032
vn 0.0789 0.9969 -0.0000
vn 0.2469 0.9690 -0.0000
vn 0.4472 0.8944 -0.0000
vn 0.7004 0.7137 -0.0000
vn 0.9533 0.3020 -0.0000
vn -0.0789 0.9969 -0.0000
vn -0.2469 0.9690 -0.0000
vn -0.4472 0.8944 -0.0000
vn -0.7004 0.7137 -0.0000
vn -0.9533 0.3020 -0.0000
vn -0.0000 0.9986 -0.0527
vn -0.0000 0.9859 -0.1674
vn -0.0000 0.9487 -0.3162
vn -0.0000 0.8368 -0.5475
vn -0.0000 0.4292 -0.9032
vn -0.0000 -0.0000 -1.0000
vn -0.0075 -0.0000 1.0000
vn -1.0000 -0.0000 0.0004
vn -1.0000 -0.0000 -0.0007
vn 0.0024 -0.0000 -1.0000
vn 1.0000 -0.0000 0.0037
vn 1.0000 -0.0000 0.0004
vn 0.0075 -0.0000 1.0000
vn -1.0000 -0.0000 0.0037
vn -0.7010 -0.0000 0.7131
vn -0.0024 -0.0000 -1.0000
vn 1.0000 -0.0000 -0.0007
vn 0.7071 -0.0000 -0.7071
vt 0.375000 0.750000
vt 0.588004 0.750000
vt 0.588004 1.000000
vt 0.375000 1.000000
vt 0.375000 0.000000
vt 0.588004 0.000000
vt 0.588004 0.250000
vt 0.375000 0.250000
vt 0.125000 0.500000
vt 0.375000 0.500000
vt 0.125000 0.750000
vt 0.807940 0.671911
vt 0.838004 0.713004
vt 0.661996 0.713004
vt 0.661996 0.536996
vt 0.694314 0.578415
vt 0.671516 0.593356
vt 0.718841 0.625122
vt 0.671582 0.656773
vt 0.704019 0.678398
vt 0.751114 0.646786
vt 0.798209 0.678398
vt 0.838004 0.536996
vt 0.830646 0.656773
vt 0.783387 0.625122
vt 0.830712 0.593356
vt 0.798144 0.572011
vt 0.751114 0.603508
vt 0.704084 0.572011
vt 0.588004 0.500000
vt 0.849437 0.724437
vt 0.650563 0.724437
vt 0.859750 0.734750
vt 0.640250 0.734750
vt 0.867934 0.750000
vt 0.632066 0.750000
vt 0.625000 0.757066
vt 0.625000 0.992934
vt 0.599437 0.998189
vt 0.599437 0.751811
vt 0.650563 0.525563
vt 0.640250 0.515250
vt 0.609750 0.742934
vt 0.609750 0.507066
vt 0.599437 0.748189
vt 0.599437 0.501811
vt 0.849437 0.525563
vt 0.859750 0.515250
vt 0.875000 0.507066
vt 0.875000 0.742934
vt 0.625000 0.007066
vt 0.625000 0.242934
vt 0.599437 0.248189
vt 0.599437 0.001811
vt 0.632066 0.500000
vt 0.867934 0.500000
vt 0.625000 0.257066
vt 0.625000 0.492934
vt 0.599437 0.498189
vt 0.599437 0.251811
vt 0.375209 0.000000
vt 0.106232 0.000000
vt 0.000000 0.000000
vt 0.428571 0.000000
vt 0.285714 0.000000
vt 0.179183 0.000000
vt 0.338818 0.000000
vt 0.352348 0.000000
vt 0.142758 0.000000
vt 1.000000 0.000000
vt 0.857143 0.000000
vt 0.750612 0.000000
vt 0.839968 0.000000
vt 0.730683 0.000000
vt 0.677660 0.000000
vt 0.571429 0.000000
vt 0.771430 0.000000
vt 0.714187 0.000000
vt 0.804039 0.000000
vt 0.714286 0.000000
vt 0.767648 0.000000
vt 0.790509 0.000000
vt 0.089513 0.000000
vt 0.142857 0.000000
vt 0.053085 0.000000
vt 0.000000 0.700002
vt 0.092898 0.000000
vt 0.092898 0.700002
vt 0.156648 0.000000
vt 0.250000 0.000000
vt 0.250000 0.700002
vt 0.156648 0.700002
vt 0.500000 0.000000
vt 0.500000 0.700002
vt 0.592931 0.700002
vt 0.592931 0.000000
vt 0.750000 0.000000
vt 0.750000 0.700002
vt 0.656615 0.700002
vt 0.656615 0.000000
vt 1.000000 0.700002
vt 0.000000 0.700002
vt 0.075000 0.700002
vt 0.343385 0.700002
vt 0.343385 0.000000
vt 0.407069 0.700002
vt 0.407069 0.000000
vt 0.574999 0.700002
vt 0.843352 0.000000
vt 0.843352 0.700002
vt 0.907102 0.000000
vt 0.907102 0.700002
s 0
usemtl Material
f 2/1/1 15/2/1 32/3/1 4/4/1
f 4/5/2 32/6/2 26/7/2 3/8/2
f 3/9/3 1/10/3 2/1/3 4/11/3
f 38/12/4 31/13/4 14/14/4 5/15/4 50/16/4 49/17/4 47/18/4 46/19/4 45/20/4 48/21/4 44/22/4
f 50/16/4 5/15/4 25/23/4 31/13/4 38/12/4 39/24/4 42/25/4 37/26/4 40/27/4 43/28/4 41/29/4
f 1/10/5 6/30/5 15/2/5 2/1/5
f 14/14/6 31/13/6 33/31/6 18/32/6
f 18/32/7 33/31/7 34/33/7 20/34/7
f 20/34/8 34/33/8 35/35/8 22/36/8
f 22/37/9 35/38/9 36/39/9 24/40/9
f 24/40/10 36/39/10 32/3/10 15/2/10
f 5/15/11 14/14/11 18/32/11 7/41/11
f 7/41/12 18/32/12 20/34/12 8/42/12
f 8/42/13 20/34/13 22/43/13 9/44/13
f 9/44/14 22/43/14 24/45/14 12/46/14
f 12/46/15 24/45/15 15/2/15 6/30/15
f 31/13/16 25/23/16 27/47/16 33/31/16
f 33/31/17 27/47/17 28/48/17 34/33/17
f 34/33/18 28/48/18 29/49/18 35/50/18
f 35/51/19 29/52/19 30/53/19 36/54/19
f 36/54/20 30/53/20 26/7/20 32/6/20
f 25/23/21 5/15/21 7/41/21 27/47/21
f 27/47/22 7/41/22 8/42/22 28/48/22
f 28/48/23 8/42/23 9/55/23 29/56/23
f 29/57/24 9/58/24 12/59/24 30/60/24
f 30/60/25 12/59/25 6/30/25 26/7/25
f 3/8/26 26/7/26 6/30/26 1/10/26
f 55/61/4 58/62/4 10/63/4 16/64/4
f 13/65/4 57/66/4 56/67/4
f 58/62/4 55/61/4 54/68/4 59/69/4
f 54/68/4 56/67/4 57/66/4 59/69/4
f 23/70/4 21/71/4 54/72/4 55/73/4
f 53/74/4 52/75/4 17/76/4
f 52/75/4 53/74/4 58/77/4 59/78/4
f 56/79/4 54/72/4 21/71/4
f 19/80/4 17/76/4 52/75/4 51/81/4
f 51/81/4 52/75/4 59/78/4 57/82/4
f 51/83/4 57/66/4 13/65/4 11/84/4
f 10/63/4 58/62/4 53/85/4
s 1
f 40/86/27 10/63/27 53/87/1 43/88/1
f 51/89/28 11/90/29 46/91/29 47/92/28
f 11/90/29 13/93/30 45/94/30 46/91/29
f 48/95/26 45/94/30 13/93/30 56/96/26
f 16/97/31 37/98/31 42/99/32 55/100/32
f 37/98/31 16/97/31 10/70/27 40/101/27
f 41/102/33 17/63/33 19/90/34 49/91/34 50/103/35
f 47/104/28 49/91/34 19/90/34 51/105/28
f 21/93/36 44/94/36 48/106/26 56/107/26
f 21/93/36 23/97/37 39/98/37 38/108/38 44/94/36
f 39/98/37 23/97/37 55/109/32 42/110/32
f 53/111/1 17/70/33 41/101/33 43/112/1
