# Blender 4.4.0
# www.blender.org
mtllib CheckButton.mtl
o Cube
v 0.500000 -0.250000 -0.800000
v 0.500000 -0.250000 0.800000
v -0.500000 -0.250000 -0.800000
v -0.500000 -0.250000 0.800000
v 0.352017 0.250000 -0.563228
v 0.500000 0.176009 -0.800000
v 0.397746 0.246379 -0.636394
v 0.285526 0.198328 0.070813
v 0.438999 0.235869 -0.702399
v -0.026854 0.198328 0.385775
v -0.155424 0.198328 0.257204
v 0.471738 0.219500 -0.754780
v 0.492757 0.198873 -0.788411
v 0.027621 0.198328 0.071158
v 0.352017 0.250000 0.563228
v -0.356365 0.198328 -0.313827
v 0.500000 0.176009 0.800000
v -0.228264 0.198328 -0.444137
v 0.397746 0.246379 0.636394
v 0.438999 0.235869 0.702399
v 0.471738 0.219500 0.754780
v 0.492757 0.198873 0.788411
v -0.352017 0.250000 -0.563228
v -0.500000 0.176009 -0.800000
v -0.397746 0.246379 -0.636394
v -0.438999 0.235869 -0.702399
v -0.471738 0.219500 -0.754780
v -0.492757 0.198873 -0.788411
v -0.352017 0.250000 0.563228
v -0.500000 0.176009 0.800000
v -0.397746 0.246379 0.636394
v -0.438999 0.235869 0.702399
v -0.471738 0.219500 0.754780
v -0.492757 0.198873 0.788411
v -0.352017 0.250000 -0.318249
v -0.352017 0.250000 -0.309468
v -0.228264 0.250000 -0.444137
v -0.155424 0.250000 0.257204
v -0.026854 0.250000 0.385775
v 0.027621 0.250000 0.071158
v 0.285526 0.250000 0.070813
v -0.356365 0.249656 -0.313827
vn -0.0000 -0.0000 1.0000
vn -1.0000 -0.0000 -0.0000
vn -0.0000 -1.0000 -0.0000
vn -0.0000 1.0000 -0.0000
vn 1.0000 -0.0000 -0.0000
vn -0.0000 0.9988 0.0494
vn -0.0000 0.9876 0.1572
vn -0.0000 0.9545 0.2983
vn -0.0000 0.8524 0.5228
vn -0.0000 0.4521 0.8920
vn 0.0789 0.9969 -0.0000
vn 0.2469 0.9690 -0.0000
vn 0.4472 0.8944 -0.0000
vn 0.7004 0.7137 -0.0000
vn 0.9533 0.3020 -0.0000
vn -0.0789 0.9969 -0.0000
vn -0.2469 0.9690 -0.0000
vn -0.4472 0.8944 -0.0000
vn -0.7004 0.7137 -0.0000
vn -0.9533 0.3020 -0.0000
vn -0.0000 0.9988 -0.0494
vn -0.0000 0.9876 -0.1572
vn -0.0000 0.9545 -0.2983
vn -0.0000 0.8524 -0.5228
vn -0.0000 0.4521 -0.8920
vn -0.0000 -0.0000 -1.0000
vn -1.0000 -0.0000 0.0008
vn -0.0030 -0.0000 -1.0000
vn 1.0000 -0.0000 -0.0023
vn 1.0000 -0.0000 -0.0019
vn 1.0000 -0.0000 -0.0020
vn 1.0000 -0.0000 -0.0022
vn 0.7080 -0.0000 -0.7062
vn 0.0054 -0.0000 1.0000
vn 0.7131 -0.0000 0.7010
vt 0.375000 0.750000
vt 0.588004 0.750000
vt 0.588004 1.000000
vt 0.375000 1.000000
vt 0.375000 0.000000
vt 0.588004 0.000000
vt 0.588004 0.250000
vt 0.375000 0.250000
vt 0.125000 0.500000
vt 0.375000 0.500000
vt 0.125000 0.750000
vt 0.838004 0.576646
vt 0.838004 0.713004
vt 0.661996 0.713004
vt 0.661996 0.536996
vt 0.838004 0.536996
vt 0.838004 0.575274
vt 0.807066 0.555604
vt 0.678619 0.636065
vt 0.756714 0.685277
vt 0.788856 0.665188
vt 0.743095 0.636119
vt 0.588004 0.500000
vt 0.849437 0.724437
vt 0.650563 0.724437
vt 0.859750 0.734750
vt 0.640250 0.734750
vt 0.867934 0.750000
vt 0.632066 0.750000
vt 0.625000 0.757066
vt 0.625000 0.992934
vt 0.599437 0.998189
vt 0.599437 0.751811
vt 0.650563 0.525563
vt 0.640250 0.515250
vt 0.609750 0.742934
vt 0.609750 0.507066
vt 0.599437 0.748189
vt 0.599437 0.501811
vt 0.849437 0.525563
vt 0.839091 0.575965
vt 0.859750 0.515250
vt 0.875000 0.507066
vt 0.875000 0.742934
vt 0.625000 0.007066
vt 0.625000 0.242934
vt 0.599437 0.248189
vt 0.599437 0.001811
vt 0.632066 0.500000
vt 0.867934 0.500000
vt 0.625000 0.257066
vt 0.625000 0.492934
vt 0.599437 0.498189
vt 0.599437 0.251811
vt 0.600000 0.000000
vt 1.000000 0.000000
vt 0.800000 0.000000
vt 0.000000 0.000000
vt 0.200000 0.000000
vt 0.400000 0.000000
vt 0.166667 0.000000
vt 0.166667 0.516722
vt 0.000000 0.516722
vt 0.333333 0.000000
vt 0.333333 0.516722
vt 0.500000 0.000000
vt 0.500000 0.516722
vt 0.666667 0.000000
vt 0.666667 0.513279
vt 0.664780 0.516722
vt 0.833333 0.000000
vt 0.833333 0.516722
vt 0.672323 0.516722
vt 1.000000 0.516722
s 0
usemtl Material
f 2/1/1 17/2/1 30/3/1 4/4/1
f 4/5/2 30/6/2 24/7/2 3/8/2
f 3/9/3 1/10/3 2/1/3 4/11/3
f 36/12/4 29/13/4 15/14/4 5/15/4 23/16/4 35/17/4 37/18/4 41/19/4 39/20/4 38/21/4 40/22/4
f 1/10/5 6/23/5 17/2/5 2/1/5
f 15/14/6 29/13/6 31/24/6 19/25/6
f 19/25/7 31/24/7 32/26/7 20/27/7
f 20/27/8 32/26/8 33/28/8 21/29/8
f 21/30/9 33/31/9 34/32/9 22/33/9
f 22/33/10 34/32/10 30/3/10 17/2/10
f 5/15/11 15/14/11 19/25/11 7/34/11
f 7/34/12 19/25/12 20/27/12 9/35/12
f 9/35/13 20/27/13 21/36/13 12/37/13
f 12/37/14 21/36/14 22/38/14 13/39/14
f 13/39/15 22/38/15 17/2/15 6/23/15
f 35/17/16 23/16/16 25/40/16 31/24/16 29/13/16 36/12/16 42/41/16
f 31/24/17 25/40/17 26/42/17 32/26/17
f 32/26/18 26/42/18 27/43/18 33/44/18
f 33/45/19 27/46/19 28/47/19 34/48/19
f 34/48/20 28/47/20 24/7/20 30/6/20
f 23/16/21 5/15/21 7/34/21 25/40/21
f 25/40/22 7/34/22 9/35/22 26/42/22
f 26/42/23 9/35/23 12/49/23 27/50/23
f 27/51/24 12/52/24 13/53/24 28/54/24
f 28/54/25 13/53/25 6/23/25 24/7/25
f 3/8/26 24/7/26 6/23/26 1/10/26
f 14/55/4 18/56/4 16/57/4
f 14/55/4 8/58/4 18/56/4
f 10/59/4 14/55/4 11/60/4
f 8/58/4 14/55/4 10/59/4
s 1
f 8/58/27 10/61/28 39/62/28 41/63/27
f 10/61/28 11/64/29 38/65/29 39/62/28
f 38/65/29 11/64/29 14/66/30 40/67/30
f 14/66/30 16/68/31 42/69/32 36/70/33 40/67/30
f 42/69/32 16/68/31 18/71/34 37/72/34 35/73/35
f 37/72/34 18/71/34 8/56/27 41/74/27
