# Blender 4.3.2
# www.blender.org
mtllib LIVES.mtl
o Curve
v 0.000543 0.000000 -0.026939
v 0.009280 0.000000 -0.026438
v 0.009330 0.000000 -0.025266
v 0.008829 0.000000 -0.024574
v 0.007337 0.000000 -0.012857
v 0.011386 0.000000 -0.012505
v 0.016287 0.000000 -0.011227
v 0.017331 0.000000 -0.005795
v 0.012537 0.000000 -0.003771
v 0.007316 0.000000 -0.003078
v 0.002841 0.000000 -0.003078
v 0.000498 0.000000 -0.003675
v 0.000543 0.010000 -0.026939
v 0.009280 0.010000 -0.026438
v 0.009330 0.010000 -0.025266
v 0.008829 0.010000 -0.024574
v 0.007337 0.010000 -0.012857
v 0.011386 0.010000 -0.012505
v 0.016287 0.010000 -0.011227
v 0.017331 0.010000 -0.005795
v 0.012537 0.010000 -0.003771
v 0.007316 0.010000 -0.003078
v 0.002841 0.010000 -0.003078
v 0.000498 0.010000 -0.003675
vn -0.0000 -1.0000 -0.0000
vn -0.0000 1.0000 -0.0000
vn 0.0865 -0.0000 -0.9963
vn -1.0000 -0.0000 -0.0020
vn 0.9820 -0.0000 -0.1887
vn 0.1315 -0.0000 0.9913
vn 0.9920 -0.0000 0.1263
vn 0.8103 -0.0000 0.5860
vn 0.2524 -0.0000 -0.9676
vn -0.2466 -0.0000 0.9691
vn 0.0572 -0.0000 -0.9984
vn 0.3889 -0.0000 0.9213
vn 0.9991 -0.0000 -0.0427
vn -0.0000 -0.0000 1.0000
vt 1.000000 0.000000
vt 0.000000 0.000000
vt 0.090909 0.000000
vt 0.272727 0.000000
vt 0.181818 0.000000
vt 0.363636 0.000000
vt 0.454545 0.000000
vt 0.545455 0.000000
vt 0.636364 0.000000
vt 0.727273 0.000000
vt 0.818182 0.000000
vt 0.909091 0.000000
s 0
usemtl SVGMat
f 12/1/1 1/2/1 2/3/1
f 12/1/1 2/3/1 4/4/1
f 4/4/1 2/3/1 3/5/1
f 12/1/1 4/4/1 5/6/1
f 12/1/1 5/6/1 6/7/1
f 12/1/1 6/7/1 7/8/1
f 12/1/1 7/8/1 8/9/1
f 12/1/1 8/9/1 9/10/1
f 12/1/1 9/10/1 10/11/1
f 11/12/1 12/1/1 10/11/1
f 24/1/2 14/3/2 13/2/2
f 24/1/2 16/4/2 14/3/2
f 16/4/2 15/5/2 14/3/2
f 24/1/2 17/6/2 16/4/2
f 24/1/2 18/7/2 17/6/2
f 24/1/2 19/8/2 18/7/2
f 24/1/2 20/9/2 19/8/2
f 24/1/2 21/10/2 20/9/2
f 24/1/2 22/11/2 21/10/2
f 23/12/2 22/11/2 24/1/2
f 6/7/3 5/6/3 17/6/3 18/7/3
f 1/2/4 12/1/4 24/1/4 13/2/4
f 8/9/5 7/8/5 19/8/5 20/9/5
f 10/11/6 9/10/6 21/10/6 22/11/6
f 5/6/7 4/4/7 16/4/7 17/6/7
f 4/4/8 3/5/8 15/5/8 16/4/8
f 7/8/9 6/7/9 18/7/9 19/8/9
f 12/1/10 11/12/10 23/12/10 24/1/10
f 2/3/11 1/2/11 13/2/11 14/3/11
f 9/10/12 8/9/12 20/9/12 21/10/12
f 3/5/13 2/3/13 14/3/13 15/5/13
f 11/12/14 10/11/14 22/11/14 23/12/14
o Curve.001
v 0.018112 0.000000 -0.024915
v 0.020776 0.000000 -0.025863
v 0.024291 0.000000 -0.025714
v 0.027381 0.000000 -0.024542
v 0.027331 0.000000 -0.002173
v 0.026585 0.000000 -0.001172
v 0.021258 0.000000 -0.000927
v 0.019447 0.000000 -0.001027
v 0.019202 0.000000 -0.018070
v 0.018112 0.010000 -0.024915
v 0.020776 0.010000 -0.025863
v 0.024291 0.010000 -0.025714
v 0.027381 0.010000 -0.024542
v 0.027331 0.010000 -0.002173
v 0.026585 0.010000 -0.001172
v 0.021258 0.010000 -0.000927
v 0.019447 0.010000 -0.001027
v 0.019202 0.010000 -0.018070
vn -0.0000 -1.0000 -0.0000
vn -0.0000 1.0000 -0.0000
vn 0.0459 -0.0000 0.9989
vn 0.3546 -0.0000 -0.9350
vn 1.0000 -0.0000 0.0022
vn -0.9876 -0.0000 0.1572
vn 0.8020 -0.0000 0.5973
vn 0.0424 -0.0000 -0.9991
vn -0.9999 -0.0000 0.0144
vn -0.0552 -0.0000 0.9985
vn -0.3353 -0.0000 -0.9421
vt 0.000000 0.000000
vt 0.125000 0.000000
vt 0.250000 0.000000
vt 0.375000 0.000000
vt 1.000000 0.000000
vt 0.500000 0.000000
vt 0.875000 0.000000
vt 0.625000 0.000000
vt 0.750000 0.000000
s 0
usemtl SVGMat
f 25/13/15 26/14/15 27/15/15
f 25/13/15 27/15/15 28/16/15
f 33/17/15 25/13/15 28/16/15
f 33/17/15 28/16/15 29/18/15
f 32/19/15 33/17/15 29/18/15
f 32/19/15 29/18/15 30/20/15
f 32/19/15 30/20/15 31/21/15
f 34/13/16 36/15/16 35/14/16
f 34/13/16 37/16/16 36/15/16
f 42/17/16 37/16/16 34/13/16
f 42/17/16 38/18/16 37/16/16
f 41/19/16 38/18/16 42/17/16
f 41/19/16 39/20/16 38/18/16
f 41/19/16 40/21/16 39/20/16
f 31/21/17 30/20/17 39/20/17 40/21/17
f 28/16/18 27/15/18 36/15/18 37/16/18
f 29/18/19 28/16/19 37/16/19 38/18/19
f 25/13/20 33/17/20 42/17/20 34/13/20
f 30/20/21 29/18/21 38/18/21 39/20/21
f 27/15/22 26/14/22 35/14/22 36/15/22
f 33/17/23 32/19/23 41/19/23 42/17/23
f 32/19/24 31/21/24 40/21/24 41/19/24
f 26/14/25 25/13/25 34/13/25 35/14/25
o Curve.002
v 0.038355 0.000000 -0.017032
v 0.042190 0.000000 -0.025767
v 0.045493 0.000000 -0.026268
v 0.051033 0.000000 -0.025096
v 0.051133 0.000000 -0.023498
v 0.046446 0.000000 -0.014657
v 0.043995 0.000000 -0.008905
v 0.042994 0.000000 -0.004538
v 0.042749 0.000000 -0.002407
v 0.040085 0.000000 -0.002407
v 0.035397 0.000000 -0.001662
v 0.034012 0.000000 -0.002940
v 0.032627 0.000000 -0.009118
v 0.030070 0.000000 -0.016787
v 0.029420 0.000000 -0.022220
v 0.030805 0.000000 -0.023019
v 0.037198 0.000000 -0.023221
v 0.037645 0.000000 -0.022720
v 0.037695 0.000000 -0.018353
v 0.038355 0.010000 -0.017032
v 0.042190 0.010000 -0.025767
v 0.045493 0.010000 -0.026268
v 0.051033 0.010000 -0.025096
v 0.051133 0.010000 -0.023498
v 0.046446 0.010000 -0.014657
v 0.043995 0.010000 -0.008905
v 0.042994 0.010000 -0.004538
v 0.042749 0.010000 -0.002407
v 0.040085 0.010000 -0.002407
v 0.035397 0.010000 -0.001662
v 0.034012 0.010000 -0.002940
v 0.032627 0.010000 -0.009118
v 0.030070 0.010000 -0.016787
v 0.029420 0.010000 -0.022220
v 0.030805 0.010000 -0.023019
v 0.037198 0.010000 -0.023221
v 0.037645 0.010000 -0.022720
v 0.037695 0.010000 -0.018353
vn -0.0000 -1.0000 -0.0000
vn -0.0000 1.0000 -0.0000
vn 0.9747 -0.0000 0.2235
vn 0.9980 -0.0000 -0.0626
vn -0.9487 -0.0000 0.3163
vn -0.1499 -0.0000 -0.9887
vn 0.9999 -0.0000 -0.0115
vn 0.9934 -0.0000 0.1143
vn 0.8835 -0.0000 0.4685
vn -0.9929 -0.0000 0.1188
vn -0.6782 -0.0000 0.7349
vn -0.0316 -0.0000 -0.9995
vn 0.9200 -0.0000 0.3919
vn 0.2069 -0.0000 -0.9784
vn 0.1571 -0.0000 0.9876
vn -0.9758 -0.0000 0.2188
vn -0.9156 -0.0000 -0.4021
vn 0.7456 -0.0000 -0.6664
vn 0.8947 -0.0000 -0.4467
vn -0.0000 -0.0000 1.0000
vn -0.4996 -0.0000 -0.8662
vt 0.055556 0.000000
vt 0.111111 0.000000
vt 0.166667 0.000000
vt 0.000000 0.000000
vt 0.222222 0.000000
vt 0.277778 0.000000
vt 0.833333 0.000000
vt 0.888889 0.000000
vt 0.944444 0.000000
vt 0.777778 0.000000
vt 1.000000 0.000000
vt 0.722222 0.000000
vt 0.666667 0.000000
vt 0.333333 0.000000
vt 0.611111 0.000000
vt 0.388889 0.000000
vt 0.444444 0.000000
vt 0.555556 0.000000
vt 0.500000 0.000000
s 0
usemtl SVGMat
f 44/22/26 45/23/26 46/24/26
f 43/25/26 44/22/26 46/24/26
f 43/25/26 46/24/26 47/26/26
f 43/25/26 47/26/26 48/27/26
f 58/28/26 59/29/26 60/30/26
f 57/31/26 58/28/26 60/30/26
f 57/31/26 60/30/26 61/32/26
f 56/33/26 57/31/26 61/32/26
f 56/33/26 61/32/26 43/25/26
f 56/33/26 43/25/26 48/27/26
f 55/34/26 56/33/26 48/27/26
f 55/34/26 48/27/26 49/35/26
f 54/36/26 55/34/26 49/35/26
f 54/36/26 49/35/26 50/37/26
f 54/36/26 50/37/26 51/38/26
f 53/39/26 54/36/26 52/40/26
f 52/40/26 54/36/26 51/38/26
f 63/22/27 65/24/27 64/23/27
f 62/25/27 65/24/27 63/22/27
f 62/25/27 66/26/27 65/24/27
f 62/25/27 67/27/27 66/26/27
f 77/28/27 79/30/27 78/29/27
f 76/31/27 79/30/27 77/28/27
f 76/31/27 80/32/27 79/30/27
f 75/33/27 80/32/27 76/31/27
f 75/33/27 62/25/27 80/32/27
f 75/33/27 67/27/27 62/25/27
f 74/34/27 67/27/27 75/33/27
f 74/34/27 68/35/27 67/27/27
f 73/36/27 68/35/27 74/34/27
f 73/36/27 69/37/27 68/35/27
f 73/36/27 70/38/27 69/37/27
f 72/39/27 71/40/27 73/36/27
f 71/40/27 70/38/27 73/36/27
f 50/37/28 49/35/28 68/35/28 69/37/28
f 47/26/29 46/24/29 65/24/29 66/26/29
f 56/33/30 55/34/30 74/34/30 75/33/30
f 45/23/31 44/22/31 63/22/31 64/23/31
f 61/32/32 60/30/32 79/30/32 80/32/32
f 51/38/33 50/37/33 69/37/33 70/38/33
f 48/27/34 47/26/34 66/26/34 67/27/34
f 57/31/35 56/33/35 75/33/35 76/31/35
f 54/36/36 53/39/36 72/39/36 73/36/36
f 59/29/37 58/28/37 77/28/37 78/29/37
f 49/35/38 48/27/38 67/27/38 68/35/38
f 46/24/39 45/23/39 64/23/39 65/24/39
f 53/39/40 52/40/40 71/40/40 72/39/40
f 55/34/41 54/36/41 73/36/41 74/34/41
f 44/22/42 43/25/42 62/25/42 63/22/42
f 60/30/43 59/29/43 78/29/43 79/30/43
f 43/25/44 61/32/44 80/32/44 62/25/44
f 52/40/45 51/38/45 70/38/45 71/40/45
f 58/28/46 57/31/46 76/31/46 77/28/46
o Curve.003
v 0.055401 0.000000 -0.026513
v 0.064670 0.000000 -0.025916
v 0.065065 0.000000 -0.024531
v 0.065015 0.000000 -0.022934
v 0.063970 0.000000 -0.019844
v 0.062926 0.000000 -0.019152
v 0.060050 0.000000 -0.018801
v 0.060100 0.000000 -0.018151
v 0.065640 0.000000 -0.017554
v 0.065789 0.000000 -0.012761
v 0.063978 0.000000 -0.011717
v 0.062060 0.000000 -0.011323
v 0.059077 0.000000 -0.011525
v 0.059027 0.000000 -0.009821
v 0.066059 0.000000 -0.008543
v 0.066911 0.000000 -0.007797
v 0.066911 0.000000 -0.006199
v 0.066314 0.000000 -0.005198
v 0.066214 0.000000 -0.002961
v 0.065468 0.000000 -0.002365
v 0.052683 0.000000 -0.002610
v 0.052886 0.000000 -0.024979
v 0.053685 0.000000 -0.026023
v 0.055401 0.010000 -0.026513
v 0.064670 0.010000 -0.025916
v 0.065065 0.010000 -0.024531
v 0.065015 0.010000 -0.022934
v 0.063970 0.010000 -0.019844
v 0.062926 0.010000 -0.019152
v 0.060050 0.010000 -0.018801
v 0.060100 0.010000 -0.018151
v 0.065640 0.010000 -0.017554
v 0.065789 0.010000 -0.012761
v 0.063978 0.010000 -0.011717
v 0.062060 0.010000 -0.011323
v 0.059077 0.010000 -0.011525
v 0.059027 0.010000 -0.009821
v 0.066059 0.010000 -0.008543
v 0.066911 0.010000 -0.007797
v 0.066911 0.010000 -0.006199
v 0.066314 0.010000 -0.005198
v 0.066214 0.010000 -0.002961
v 0.065468 0.010000 -0.002365
v 0.052683 0.010000 -0.002610
v 0.052886 0.010000 -0.024979
v 0.053685 0.010000 -0.026023
vn -0.0000 -1.0000 -0.0000
vn -0.0000 1.0000 -0.0000
vn 0.8591 -0.0000 0.5119
vn 0.5527 -0.0000 0.8334
vn 0.9995 -0.0000 -0.0311
vn 0.0642 -0.0000 -0.9979
vn 0.1788 -0.0000 -0.9839
vn 0.9990 -0.0000 0.0447
vn -0.7941 -0.0000 -0.6078
vn 0.9970 -0.0000 -0.0768
vn 0.4993 -0.0000 0.8664
vn -0.0192 -0.0000 0.9998
vn 0.6584 -0.0000 -0.7526
vn 0.9995 -0.0000 0.0313
vn -0.0677 -0.0000 0.9977
vn 0.6246 -0.0000 0.7809
vn 0.2013 -0.0000 0.9795
vn 0.9618 -0.0000 -0.2738
vn 1.0000 -0.0000 -0.0000
vn 0.9473 -0.0000 0.3202
vn -1.0000 -0.0000 -0.0090
vn 0.1071 -0.0000 -0.9943
vn -0.2745 -0.0000 -0.9616
vn 0.1213 -0.0000 0.9926
vn 0.9996 -0.0000 0.0294
vt 1.000000 0.000000
vt 0.000000 0.000000
vt 0.045455 0.000000
vt 0.954545 0.000000
vt 0.090909 0.000000
vt 0.909091 0.000000
vt 0.272727 0.000000
vt 0.136364 0.000000
vt 0.181818 0.000000
vt 0.227273 0.000000
vt 0.318182 0.000000
vt 0.545455 0.000000
vt 0.363636 0.000000
vt 0.409091 0.000000
vt 0.454545 0.000000
vt 0.500000 0.000000
vt 0.590909 0.000000
vt 0.636364 0.000000
vt 0.681818 0.000000
vt 0.727273 0.000000
vt 0.772727 0.000000
vt 0.818182 0.000000
vt 0.863636 0.000000
s 0
usemtl SVGMat
f 103/41/47 81/42/47 82/43/47
f 102/44/47 103/41/47 82/43/47
f 102/44/47 82/43/47 83/45/47
f 101/46/47 102/44/47 87/47/47
f 87/47/47 102/44/47 83/45/47
f 87/47/47 83/45/47 84/48/47
f 87/47/47 84/48/47 85/49/47
f 87/47/47 85/49/47 86/50/47
f 101/46/47 87/47/47 88/51/47
f 101/46/47 88/51/47 93/52/47
f 93/52/47 88/51/47 89/53/47
f 93/52/47 89/53/47 90/54/47
f 93/52/47 90/54/47 91/55/47
f 93/52/47 91/55/47 92/56/47
f 101/46/47 93/52/47 94/57/47
f 101/46/47 94/57/47 95/58/47
f 101/46/47 95/58/47 96/59/47
f 101/46/47 96/59/47 97/60/47
f 101/46/47 97/60/47 98/61/47
f 101/46/47 98/61/47 99/62/47
f 101/46/47 99/62/47 100/63/47
f 126/41/48 105/43/48 104/42/48
f 125/44/48 105/43/48 126/41/48
f 125/44/48 106/45/48 105/43/48
f 124/46/48 110/47/48 125/44/48
f 110/47/48 106/45/48 125/44/48
f 110/47/48 107/48/48 106/45/48
f 110/47/48 108/49/48 107/48/48
f 110/47/48 109/50/48 108/49/48
f 124/46/48 111/51/48 110/47/48
f 124/46/48 116/52/48 111/51/48
f 116/52/48 112/53/48 111/51/48
f 116/52/48 113/54/48 112/53/48
f 116/52/48 114/55/48 113/54/48
f 116/52/48 115/56/48 114/55/48
f 124/46/48 117/57/48 116/52/48
f 124/46/48 118/58/48 117/57/48
f 124/46/48 119/59/48 118/58/48
f 124/46/48 120/60/48 119/59/48
f 124/46/48 121/61/48 120/60/48
f 124/46/48 122/62/48 121/61/48
f 124/46/48 123/63/48 122/62/48
f 98/61/49 97/60/49 120/60/49 121/61/49
f 86/50/50 85/49/50 108/49/50 109/50/50
f 90/54/51 89/53/51 112/53/51 113/54/51
f 82/43/52 81/42/52 104/42/52 105/43/52
f 95/58/53 94/57/53 117/57/53 118/58/53
f 99/62/54 98/61/54 121/61/54 122/62/54
f 103/41/55 102/44/55 125/44/55 126/41/55
f 88/51/56 87/47/56 110/47/56 111/51/56
f 91/55/57 90/54/57 113/54/57 114/55/57
f 101/46/58 100/63/58 123/63/58 124/46/58
f 96/59/59 95/58/59 118/58/59 119/59/59
f 84/48/60 83/45/60 106/45/60 107/48/60
f 93/52/61 92/56/61 115/56/61 116/52/61
f 100/63/62 99/62/62 122/62/62 123/63/62
f 92/56/63 91/55/63 114/55/63 115/56/63
f 83/45/64 82/43/64 105/43/64 106/45/64
f 97/60/65 96/59/65 119/59/65 120/60/65
f 85/49/66 84/48/66 107/48/66 108/49/66
f 102/44/67 101/46/67 124/46/67 125/44/67
f 89/53/68 88/51/68 111/51/68 112/53/68
f 81/42/69 103/41/69 126/41/69 104/42/69
f 87/47/70 86/50/70 109/50/70 110/47/70
f 94/57/71 93/52/71 116/52/71 117/57/71
o Curve.004
v 0.069252 0.000000 -0.025341
v 0.071383 0.000000 -0.027258
v 0.073620 0.000000 -0.028323
v 0.077775 0.000000 -0.028185
v 0.080652 0.000000 -0.026481
v 0.081706 0.000000 -0.024457
v 0.081706 0.000000 -0.020729
v 0.081248 0.000000 -0.019919
v 0.080470 0.000000 -0.019884
v 0.079799 0.000000 -0.020619
v 0.079729 0.000000 -0.021290
v 0.078131 0.000000 -0.021290
v 0.076852 0.000000 -0.020448
v 0.076747 0.000000 -0.018318
v 0.083565 0.000000 -0.012566
v 0.083842 0.000000 -0.011575
v 0.084652 0.000000 -0.010659
v 0.084929 0.000000 -0.006718
v 0.084365 0.000000 -0.004481
v 0.083086 0.000000 -0.002564
v 0.080316 0.000000 -0.001286
v 0.078505 0.000000 -0.000796
v 0.074882 0.000000 -0.000761
v 0.071899 0.000000 -0.001570
v 0.069236 0.000000 -0.002955
v 0.069165 0.000000 -0.005192
v 0.069517 0.000000 -0.005650
v 0.069482 0.000000 -0.007035
v 0.070185 0.000000 -0.007525
v 0.070004 0.000000 -0.008473
v 0.071069 0.000000 -0.009176
v 0.073733 0.000000 -0.007365
v 0.076077 0.000000 -0.007791
v 0.076780 0.000000 -0.008526
v 0.076215 0.000000 -0.009335
v 0.076215 0.000000 -0.010827
v 0.075043 0.000000 -0.012211
v 0.072273 0.000000 -0.014555
v 0.070249 0.000000 -0.017324
v 0.068970 0.000000 -0.020520
v 0.068865 0.000000 -0.022970
v 0.069252 0.010000 -0.025341
v 0.071383 0.010000 -0.027258
v 0.073620 0.010000 -0.028323
v 0.077775 0.010000 -0.028185
v 0.080652 0.010000 -0.026481
v 0.081706 0.010000 -0.024457
v 0.081706 0.010000 -0.020729
v 0.081248 0.010000 -0.019919
v 0.080470 0.010000 -0.019884
v 0.079799 0.010000 -0.020619
v 0.079729 0.010000 -0.021290
v 0.078131 0.010000 -0.021290
v 0.076852 0.010000 -0.020448
v 0.076747 0.010000 -0.018318
v 0.083565 0.010000 -0.012566
v 0.083842 0.010000 -0.011575
v 0.084652 0.010000 -0.010659
v 0.084929 0.010000 -0.006718
v 0.084365 0.010000 -0.004481
v 0.083086 0.010000 -0.002564
v 0.080316 0.010000 -0.001286
v 0.078505 0.010000 -0.000796
v 0.074882 0.010000 -0.000761
v 0.071899 0.010000 -0.001570
v 0.069236 0.010000 -0.002955
v 0.069165 0.010000 -0.005192
v 0.069517 0.010000 -0.005650
v 0.069482 0.010000 -0.007035
v 0.070185 0.010000 -0.007525
v 0.070004 0.010000 -0.008473
v 0.071069 0.010000 -0.009176
v 0.073733 0.010000 -0.007365
v 0.076077 0.010000 -0.007791
v 0.076780 0.010000 -0.008526
v 0.076215 0.010000 -0.009335
v 0.076215 0.010000 -0.010827
v 0.075043 0.010000 -0.012211
v 0.072273 0.010000 -0.014555
v 0.070249 0.010000 -0.017324
v 0.068970 0.010000 -0.020520
v 0.068865 0.010000 -0.022970
vn -0.0000 -1.0000 -0.0000
vn -0.0000 1.0000 -0.0000
vn 0.0451 -0.0000 0.9990
vn -0.9995 -0.0000 0.0314
vn -0.4299 -0.0000 -0.9029
vn -0.9284 -0.0000 0.3715
vn -0.9822 -0.0000 0.1877
vn 1.0000 -0.0000 -0.0000
vn -0.9991 -0.0000 0.0430
vn 0.7493 -0.0000 -0.6623
vn 0.0333 -0.0000 -0.9994
vn -0.1788 -0.0000 -0.9839
vn -1.0000 -0.0000 -0.0000
vn 0.8320 -0.0000 0.5548
vn 0.9988 -0.0000 0.0495
vn -0.4613 -0.0000 0.8873
vn 0.5097 -0.0000 -0.8603
vn -0.5717 -0.0000 -0.8205
vn -0.0000 -0.0000 1.0000
vn -0.6689 -0.0000 -0.7434
vn 0.6448 -0.0000 -0.7644
vn 0.9975 -0.0000 -0.0701
vn -0.8073 -0.0000 0.5901
vn 0.5498 -0.0000 0.8353
vn -0.8202 -0.0000 0.5721
vn 0.4190 -0.0000 0.9080
vn -0.9997 -0.0000 0.0254
vn -0.9946 -0.0000 0.1042
vn -0.2619 -0.0000 0.9651
vn 0.8868 -0.0000 -0.4622
vn -0.6459 -0.0000 0.7635
vn -0.5508 -0.0000 -0.8347
vn -0.9870 -0.0000 -0.1610
vn 0.0097 -0.0000 1.0000
vn 0.9696 -0.0000 0.2448
vn 0.8703 -0.0000 0.4925
vn 0.5622 -0.0000 -0.8270
vn 0.2611 -0.0000 0.9653
vn 0.9631 -0.0000 -0.2693
vn -0.7932 -0.0000 -0.6089
vn -0.7384 -0.0000 0.6743
vn -0.7226 -0.0000 -0.6913
vn -0.7633 -0.0000 0.6460
vt 0.025000 0.000000
vt 0.050000 0.000000
vt 0.075000 0.000000
vt 0.100000 0.000000
vt 0.000000 0.000000
vt 0.125000 0.000000
vt 1.000000 0.000000
vt 0.250000 0.000000
vt 0.150000 0.000000
vt 0.975000 0.000000
vt 0.275000 0.000000
vt 0.300000 0.000000
vt 0.225000 0.000000
vt 0.175000 0.000000
vt 0.200000 0.000000
vt 0.950000 0.000000
vt 0.325000 0.000000
vt 0.350000 0.000000
vt 0.925000 0.000000
vt 0.900000 0.000000
vt 0.375000 0.000000
vt 0.875000 0.000000
vt 0.400000 0.000000
vt 0.850000 0.000000
vt 0.425000 0.000000
vt 0.825000 0.000000
vt 0.725000 0.000000
vt 0.750000 0.000000
vt 0.775000 0.000000
vt 0.800000 0.000000
vt 0.700000 0.000000
vt 0.675000 0.000000
vt 0.650000 0.000000
vt 0.450000 0.000000
vt 0.625000 0.000000
vt 0.600000 0.000000
vt 0.475000 0.000000
vt 0.575000 0.000000
vt 0.500000 0.000000
vt 0.550000 0.000000
vt 0.525000 0.000000
s 0
usemtl SVGMat
f 128/64/72 129/65/72 130/66/72
f 128/64/72 130/66/72 131/67/72
f 127/68/72 128/64/72 131/67/72
f 127/68/72 131/67/72 132/69/72
f 167/70/72 127/68/72 132/69/72
f 167/70/72 132/69/72 137/71/72
f 137/71/72 132/69/72 133/72/72
f 166/73/72 167/70/72 138/74/72
f 138/74/72 167/70/72 137/71/72
f 166/73/72 138/74/72 139/75/72
f 136/76/72 137/71/72 133/72/72
f 136/76/72 133/72/72 134/77/72
f 135/78/72 136/76/72 134/77/72
f 165/79/72 166/73/72 139/75/72
f 165/79/72 139/75/72 140/80/72
f 165/79/72 140/80/72 141/81/72
f 164/82/72 165/79/72 141/81/72
f 163/83/72 164/82/72 141/81/72
f 163/83/72 141/81/72 142/84/72
f 162/85/72 163/83/72 142/84/72
f 162/85/72 142/84/72 143/86/72
f 161/87/72 162/85/72 143/86/72
f 161/87/72 143/86/72 144/88/72
f 160/89/72 161/87/72 144/88/72
f 156/90/72 157/91/72 158/92/72
f 159/93/72 160/89/72 144/88/72
f 155/94/72 156/90/72 158/92/72
f 158/92/72 159/93/72 144/88/72
f 154/95/72 155/94/72 158/92/72
f 154/95/72 158/92/72 144/88/72
f 153/96/72 154/95/72 144/88/72
f 153/96/72 144/88/72 145/97/72
f 152/98/72 153/96/72 145/97/72
f 151/99/72 152/98/72 145/97/72
f 151/99/72 145/97/72 146/100/72
f 150/101/72 151/99/72 146/100/72
f 150/101/72 146/100/72 147/102/72
f 149/103/72 150/101/72 147/102/72
f 149/103/72 147/102/72 148/104/72
f 169/64/73 171/66/73 170/65/73
f 169/64/73 172/67/73 171/66/73
f 168/68/73 172/67/73 169/64/73
f 168/68/73 173/69/73 172/67/73
f 208/70/73 173/69/73 168/68/73
f 208/70/73 178/71/73 173/69/73
f 178/71/73 174/72/73 173/69/73
f 207/73/73 179/74/73 208/70/73
f 179/74/73 178/71/73 208/70/73
f 207/73/73 180/75/73 179/74/73
f 177/76/73 174/72/73 178/71/73
f 177/76/73 175/77/73 174/72/73
f 176/78/73 175/77/73 177/76/73
f 206/79/73 180/75/73 207/73/73
f 206/79/73 181/80/73 180/75/73
f 206/79/73 182/81/73 181/80/73
f 205/82/73 182/81/73 206/79/73
f 204/83/73 182/81/73 205/82/73
f 204/83/73 183/84/73 182/81/73
f 203/85/73 183/84/73 204/83/73
f 203/85/73 184/86/73 183/84/73
f 202/87/73 184/86/73 203/85/73
f 202/87/73 185/88/73 184/86/73
f 201/89/73 185/88/73 202/87/73
f 197/90/73 199/92/73 198/91/73
f 200/93/73 185/88/73 201/89/73
f 196/94/73 199/92/73 197/90/73
f 199/92/73 185/88/73 200/93/73
f 195/95/73 199/92/73 196/94/73
f 195/95/73 185/88/73 199/92/73
f 194/96/73 185/88/73 195/95/73
f 194/96/73 186/97/73 185/88/73
f 193/98/73 186/97/73 194/96/73
f 192/99/73 186/97/73 193/98/73
f 192/99/73 187/100/73 186/97/73
f 191/101/73 187/100/73 192/99/73
f 191/101/73 188/102/73 187/100/73
f 190/103/73 188/102/73 191/101/73
f 190/103/73 189/104/73 188/102/73
f 135/78/74 134/77/74 175/77/74 176/78/74
f 152/98/75 151/99/75 192/99/75 193/98/75
f 129/65/76 128/64/76 169/64/76 170/65/76
f 166/73/77 165/79/77 206/79/77 207/73/77
f 156/90/78 155/94/78 196/94/78 197/90/78
f 133/72/79 132/69/79 173/69/79 174/72/79
f 167/70/80 166/73/80 207/73/80 208/70/80
f 143/86/81 142/84/81 183/84/81 184/86/81
f 130/66/82 129/65/82 170/65/82 171/66/82
f 159/93/83 158/92/83 199/92/83 200/93/83
f 162/85/84 161/87/84 202/87/84 203/85/84
f 146/100/85 145/97/85 186/97/85 187/100/85
f 140/80/86 139/75/86 180/75/86 181/80/86
f 151/99/87 150/101/87 191/101/87 192/99/87
f 131/67/88 130/66/88 171/66/88 172/67/88
f 155/94/89 154/95/89 195/95/89 196/94/89
f 138/74/90 137/71/90 178/71/90 179/74/90
f 128/64/91 127/68/91 168/68/91 169/64/91
f 141/81/92 140/80/92 181/80/92 182/81/92
f 144/88/93 143/86/93 184/86/93 185/88/93
f 165/79/94 164/82/94 205/82/94 206/79/94
f 139/75/95 138/74/95 179/74/95 180/75/95
f 161/87/96 160/89/96 201/89/96 202/87/96
f 147/102/97 146/100/97 187/100/97 188/102/97
f 154/95/98 153/96/98 194/96/98 195/95/98
f 137/71/99 136/76/99 177/76/99 178/71/99
f 150/101/100 149/103/100 190/103/100 191/101/100
f 132/69/101 131/67/101 172/67/101 173/69/101
f 164/82/102 163/83/102 204/83/102 205/82/102
f 157/91/103 156/90/103 197/90/103 198/91/103
f 127/68/104 167/70/104 208/70/104 168/68/104
f 149/103/105 148/104/105 189/104/105 190/103/105
f 145/97/106 144/88/106 185/88/106 186/97/106
f 134/77/107 133/72/107 174/72/107 175/77/107
f 158/92/108 157/91/108 198/91/108 199/92/108
f 148/104/109 147/102/109 188/102/109 189/104/109
f 142/84/110 141/81/110 182/81/110 183/84/110
f 153/96/111 152/98/111 193/98/111 194/96/111
f 136/76/112 135/78/112 176/78/112 177/76/112
f 160/89/113 159/93/113 200/93/113 201/89/113
f 163/83/114 162/85/114 203/85/114 204/83/114
