<svg width="302" height="102" version="1.1" viewBox="0 0 80 27" xml:space="preserve" xmlns="http://www.w3.org/2000/svg"><g><path d="m0.51 1.7 8.2 0.47 0.047 1.1-0.47 0.65-1.4 11 3.8 0.33 4.6 1.2 0.98 5.1-4.5 1.9-4.9 0.65h-4.2l-2.2-0.56z"/><path d="m17 3.6 2.5-0.89 3.3 0.14 2.9 1.1-0.047 21-0.7 0.94-5 0.23-1.7-0.094-0.23-16z"/><path d="m36 11 3.6-8.2 3.1-0.47 5.2 1.1 0.094 1.5-4.4 8.3-2.3 5.4-0.94 4.1-0.23 2h-2.5l-4.4 0.7-1.3-1.2-1.3-5.8-2.4-7.2-0.61-5.1 1.3-0.75 6-0.19 0.42 0.47 0.047 4.1z"/><path d="m52 2.1 8.7 0.56 0.37 1.3-0.047 1.5-0.98 2.9-0.98 0.65-2.7 0.33 0.047 0.61 5.2 0.56 0.14 4.5-1.7 0.98-1.8 0.37-2.8-0.19-0.047 1.6 6.6 1.2 0.8 0.7v1.5l-0.56 0.94-0.094 2.1-0.7 0.56-12-0.23 0.19-21 0.75-0.98z"/><path d="m65 3.2 2-1.8 2.1-1 3.9 0.13 2.7 1.6 0.99 1.9v3.5l-0.43 0.76-0.73 0.033-0.63-0.69-0.066-0.63h-1.5l-1.2 0.79-0.099 2 6.4 5.4 0.26 0.93 0.76 0.86 0.26 3.7-0.53 2.1-1.2 1.8-2.6 1.2-1.7 0.46-3.4 0.033-2.8-0.76-2.5-1.3-0.066-2.1 0.33-0.43-0.033-1.3 0.66-0.46-0.17-0.89 1-0.66 2.5 1.7 2.2-0.4 0.66-0.69-0.53-0.76v-1.4l-1.1-1.3-2.6-2.2-1.9-2.6-1.2-3-0.099-2.3z"/></g></svg>
