# Blender 4.3.2
# www.blender.org
mtllib push button.mtl
o Icosphere
v 0.000000 -0.500000 0.000000
v 0.723607 -0.223610 0.525725
v -0.276388 -0.223610 0.850649
v -0.894426 -0.223608 0.000000
v -0.276388 -0.223610 -0.850649
v 0.723607 -0.223610 -0.525725
v 0.276388 0.223610 0.850649
v -0.723607 0.223610 0.525725
v -0.723607 0.223610 -0.525725
v 0.276388 0.223610 -0.850649
v 0.894426 0.223608 0.000000
v 0.000000 0.500000 0.000000
v -0.162456 -0.425327 0.499995
v 0.425323 -0.425327 0.309011
v 0.262869 -0.262869 0.809012
v 0.850648 -0.262868 0.000000
v 0.425323 -0.425327 -0.309011
v -0.525730 -0.425326 0.000000
v -0.688189 -0.262868 0.499997
v -0.162456 -0.425327 -0.499995
v -0.688189 -0.262868 -0.499997
v 0.262869 -0.262869 -0.809012
v 0.951058 0.000000 0.309013
v 0.951058 0.000000 -0.309013
v 0.000000 0.000000 1.000000
v 0.587786 0.000000 0.809017
v -0.951058 0.000000 0.309013
v -0.587786 0.000000 0.809017
v -0.587786 0.000000 -0.809017
v -0.951058 0.000000 -0.309013
v 0.587786 0.000000 -0.809017
v 0.000000 0.000000 -1.000000
v 0.688189 0.262868 0.499997
v -0.262869 0.262869 0.809012
v -0.850648 0.262868 0.000000
v -0.262869 0.262869 -0.809012
v 0.688189 0.262868 -0.499997
v 0.162456 0.425327 0.499995
v 0.525730 0.425326 0.000000
v -0.425323 0.425327 0.309011
v -0.425323 0.425327 -0.309011
v 0.162456 0.425327 -0.499995
vn 0.0534 -0.9849 0.1645
vn 0.4604 -0.8701 0.1762
vn -0.1399 -0.9849 0.1016
vn -0.1399 -0.9849 -0.1016
vn 0.0534 -0.9849 -0.1645
vn 0.7855 -0.5735 0.2326
vn 0.0215 -0.5735 0.8189
vn -0.7722 -0.5735 0.2735
vn -0.4987 -0.5735 -0.6499
vn 0.4640 -0.5735 -0.6751
vn 0.7843 -0.2455 0.5698
vn -0.2996 -0.2455 0.9219
vn -0.9694 -0.2455 -0.0000
vn -0.2996 -0.2455 -0.9219
vn 0.7843 -0.2455 -0.5698
vn 0.2689 0.8701 0.4132
vn -0.3099 0.8701 0.3834
vn -0.4604 0.8701 -0.1762
vn 0.0253 0.8701 -0.4923
vn 0.4760 0.8701 -0.1280
vn 0.1399 0.9849 -0.1016
vn 0.2887 0.9342 -0.2097
vn 0.2689 0.8701 -0.4132
vn -0.0534 0.9849 -0.1645
vn -0.1103 0.9342 -0.3394
vn -0.3099 0.8701 -0.3834
vn -0.1729 0.9849 -0.0000
vn -0.3568 0.9342 -0.0000
vn -0.4604 0.8701 0.1762
vn -0.0534 0.9849 0.1645
vn -0.1103 0.9342 0.3394
vn 0.0253 0.8701 0.4923
vn 0.1399 0.9849 0.1016
vn 0.2887 0.9342 0.2097
vn 0.4760 0.8701 0.1280
vn 0.7722 0.5735 -0.2735
vn 0.7558 0.3568 -0.5491
vn 0.4987 0.5735 -0.6499
vn -0.0215 0.5735 -0.8189
vn -0.2887 0.3568 -0.8884
vn -0.4640 0.5735 -0.6751
vn -0.7855 0.5735 -0.2326
vn -0.9342 0.3568 -0.0000
vn -0.7855 0.5735 0.2326
vn -0.4640 0.5735 0.6751
vn -0.2887 0.3568 0.8884
vn -0.0215 0.5735 0.8189
vn 0.4987 0.5735 0.6499
vn 0.7558 0.3568 0.5491
vn 0.7722 0.5735 0.2735
vn 0.2996 0.2455 -0.9219
vn 0.2887 -0.3568 -0.8884
vn 0.0215 -0.5735 -0.8189
vn -0.7843 0.2455 -0.5698
vn -0.7558 -0.3568 -0.5491
vn -0.7722 -0.5735 -0.2735
vn -0.7843 0.2455 0.5698
vn -0.7558 -0.3568 0.5491
vn -0.4987 -0.5735 0.6499
vn 0.2996 0.2455 0.9219
vn 0.2887 -0.3568 0.8884
vn 0.4640 -0.5735 0.6751
vn 0.9694 0.2455 -0.0000
vn 0.9342 -0.3568 -0.0000
vn 0.7855 -0.5735 -0.2326
vn 0.3099 -0.8701 -0.3834
vn 0.1103 -0.9342 -0.3394
vn -0.0253 -0.8701 -0.4923
vn -0.2689 -0.8701 -0.4132
vn -0.2887 -0.9342 -0.2097
vn -0.4760 -0.8701 -0.1280
vn -0.4760 -0.8701 0.1280
vn -0.2887 -0.9342 0.2097
vn -0.2689 -0.8701 0.4132
vn 0.4604 -0.8701 -0.1762
vn 0.3568 -0.9342 -0.0000
vn 0.1729 -0.9849 -0.0000
vn -0.0253 -0.8701 0.4923
vn 0.1103 -0.9342 0.3394
vn 0.3099 -0.8701 0.3834
vt 0.181819 0.000000
vt 0.227273 0.078731
vt 0.136365 0.078731
vt 0.272728 0.157461
vt 0.318182 0.078731
vt 0.363637 0.157461
vt 0.909091 0.000000
vt 0.954545 0.078731
vt 0.863636 0.078731
vt 0.727273 0.000000
vt 0.772727 0.078731
vt 0.681818 0.078731
vt 0.545455 0.000000
vt 0.590909 0.078731
vt 0.500000 0.078731
vt 0.318182 0.236191
vt 0.090910 0.157461
vt 0.181819 0.157461
vt 0.136365 0.236191
vt 0.818182 0.157461
vt 0.909091 0.157461
vt 0.863636 0.236191
vt 0.636364 0.157461
vt 0.727273 0.157461
vt 0.681818 0.236191
vt 0.454546 0.157461
vt 0.545455 0.157461
vt 0.500000 0.236191
vt 0.227273 0.236191
vt 0.045455 0.236191
vt 0.772727 0.236191
vt 0.590909 0.236191
vt 0.409092 0.236191
vt 0.181819 0.314921
vt 0.272728 0.314921
vt 0.227273 0.393651
vt 0.000000 0.314921
vt 0.090910 0.314921
vt 0.045455 0.393651
vt 0.727273 0.314921
vt 0.818182 0.314921
vt 0.772727 0.393651
vt 0.545455 0.314921
vt 0.636364 0.314921
vt 0.590909 0.393651
vt 0.363637 0.314921
vt 0.454546 0.314921
vt 0.409092 0.393651
vt 0.500000 0.393651
vt 0.454546 0.472382
vt 0.681818 0.393651
vt 0.636364 0.472382
vt 0.863636 0.393651
vt 0.818182 0.472382
vt 0.909091 0.314921
vt 0.136365 0.393651
vt 0.090910 0.472382
vt 0.318182 0.393651
vt 0.272728 0.472382
vt 0.954545 0.236191
vt 1.000000 0.157461
vt 0.409092 0.078731
vt 0.363637 0.000000
s 0
f 1/1/1 14/2/1 13/3/1
f 2/4/2 14/5/2 16/6/2
f 1/7/3 13/8/3 18/9/3
f 1/10/4 18/11/4 20/12/4
f 1/13/5 20/14/5 17/15/5
f 2/4/6 16/6/6 23/16/6
f 3/17/7 15/18/7 25/19/7
f 4/20/8 19/21/8 27/22/8
f 5/23/9 21/24/9 29/25/9
f 6/26/10 22/27/10 31/28/10
f 2/4/11 23/16/11 26/29/11
f 3/17/12 25/19/12 28/30/12
f 4/20/13 27/22/13 30/31/13
f 5/23/14 29/25/14 32/32/14
f 6/26/15 31/28/15 24/33/15
f 7/34/16 33/35/16 38/36/16
f 8/37/17 34/38/17 40/39/17
f 9/40/18 35/41/18 41/42/18
f 10/43/19 36/44/19 42/45/19
f 11/46/20 37/47/20 39/48/20
f 39/48/21 42/49/21 12/50/21
f 39/48/22 37/47/22 42/49/22
f 37/47/23 10/43/23 42/49/23
f 42/45/24 41/51/24 12/52/24
f 42/45/25 36/44/25 41/51/25
f 36/44/26 9/40/26 41/51/26
f 41/42/27 40/53/27 12/54/27
f 41/42/28 35/41/28 40/53/28
f 35/41/29 8/55/29 40/53/29
f 40/39/30 38/56/30 12/57/30
f 40/39/31 34/38/31 38/56/31
f 34/38/32 7/34/32 38/56/32
f 38/36/33 39/58/33 12/59/33
f 38/36/34 33/35/34 39/58/34
f 33/35/35 11/46/35 39/58/35
f 24/33/36 37/47/36 11/46/36
f 24/33/37 31/28/37 37/47/37
f 31/28/38 10/43/38 37/47/38
f 32/32/39 36/44/39 10/43/39
f 32/32/40 29/25/40 36/44/40
f 29/25/41 9/40/41 36/44/41
f 30/31/42 35/41/42 9/40/42
f 30/31/43 27/22/43 35/41/43
f 27/22/44 8/55/44 35/41/44
f 28/30/45 34/38/45 8/37/45
f 28/30/46 25/19/46 34/38/46
f 25/19/47 7/34/47 34/38/47
f 26/29/48 33/35/48 7/34/48
f 26/29/49 23/16/49 33/35/49
f 23/16/50 11/46/50 33/35/50
f 31/28/51 32/32/51 10/43/51
f 31/28/52 22/27/52 32/32/52
f 22/27/53 5/23/53 32/32/53
f 29/25/54 30/31/54 9/40/54
f 29/25/55 21/24/55 30/31/55
f 21/24/56 4/20/56 30/31/56
f 27/22/57 28/60/57 8/55/57
f 27/22/58 19/21/58 28/60/58
f 19/21/59 3/61/59 28/60/59
f 25/19/60 26/29/60 7/34/60
f 25/19/61 15/18/61 26/29/61
f 15/18/62 2/4/62 26/29/62
f 23/16/63 24/33/63 11/46/63
f 23/16/64 16/6/64 24/33/64
f 16/6/65 6/26/65 24/33/65
f 17/15/66 22/27/66 6/26/66
f 17/15/67 20/14/67 22/27/67
f 20/14/68 5/23/68 22/27/68
f 20/12/69 21/24/69 5/23/69
f 20/12/70 18/11/70 21/24/70
f 18/11/71 4/20/71 21/24/71
f 18/9/72 19/21/72 4/20/72
f 18/9/73 13/8/73 19/21/73
f 13/8/74 3/61/74 19/21/74
f 16/6/75 17/62/75 6/26/75
f 16/6/76 14/5/76 17/62/76
f 14/5/77 1/63/77 17/62/77
f 13/3/78 15/18/78 3/17/78
f 13/3/79 14/2/79 15/18/79
f 14/2/80 2/4/80 15/18/80
o Torus
v 1.250000 0.000000 0.000000
v 1.216506 0.187500 0.000000
v 1.125000 0.324760 0.000000
v 1.000000 0.375000 0.000000
v 0.875000 0.324760 0.000000
v 0.783494 0.187500 0.000000
v 0.750000 0.000000 0.000000
v 0.783494 -0.187500 0.000000
v 0.875000 -0.324760 0.000000
v 1.000000 -0.375000 0.000000
v 1.125000 -0.324760 0.000000
v 1.216506 -0.187500 0.000000
v 1.011271 0.000000 -0.734732
v 0.984174 0.187500 -0.715044
v 0.910144 0.324760 -0.661258
v 0.809017 0.375000 -0.587785
v 0.707890 0.324760 -0.514312
v 0.633860 0.187500 -0.460526
v 0.606763 0.000000 -0.440839
v 0.633860 -0.187500 -0.460526
v 0.707890 -0.324760 -0.514312
v 0.809017 -0.375000 -0.587785
v 0.910144 -0.324760 -0.661258
v 0.984174 -0.187500 -0.715044
v 0.386271 0.000000 -1.188821
v 0.375921 0.187500 -1.156966
v 0.347644 0.324760 -1.069939
v 0.309017 0.375000 -0.951056
v 0.270390 0.324760 -0.832174
v 0.242113 0.187500 -0.745147
v 0.231763 0.000000 -0.713292
v 0.242113 -0.187500 -0.745147
v 0.270390 -0.324760 -0.832174
v 0.309017 -0.375000 -0.951056
v 0.347644 -0.324760 -1.069939
v 0.375921 -0.187500 -1.156966
v -0.386271 0.000000 -1.188821
v -0.375921 0.187500 -1.156966
v -0.347644 0.324760 -1.069939
v -0.309017 0.375000 -0.951056
v -0.270390 0.324760 -0.832174
v -0.242113 0.187500 -0.745147
v -0.231763 0.000000 -0.713292
v -0.242113 -0.187500 -0.745147
v -0.270390 -0.324760 -0.832174
v -0.309017 -0.375000 -0.951056
v -0.347644 -0.324760 -1.069939
v -0.375921 -0.187500 -1.156966
v -1.011271 0.000000 -0.734731
v -0.984175 0.187500 -0.715044
v -0.910144 0.324760 -0.661258
v -0.809017 0.375000 -0.587785
v -0.707890 0.324760 -0.514312
v -0.633860 0.187500 -0.460526
v -0.606763 0.000000 -0.440839
v -0.633860 -0.187500 -0.460526
v -0.707890 -0.324760 -0.514312
v -0.809017 -0.375000 -0.587785
v -0.910144 -0.324760 -0.661258
v -0.984175 -0.187500 -0.715044
v -1.250000 0.000000 -0.000000
v -1.216506 0.187500 -0.000000
v -1.125000 0.324760 -0.000000
v -1.000000 0.375000 -0.000000
v -0.875000 0.324760 -0.000000
v -0.783494 0.187500 -0.000000
v -0.750000 0.000000 -0.000000
v -0.783494 -0.187500 -0.000000
v -0.875000 -0.324760 -0.000000
v -1.000000 -0.375000 -0.000000
v -1.125000 -0.324760 -0.000000
v -1.216506 -0.187500 -0.000000
v -1.011271 0.000000 0.734731
v -0.984175 0.187500 0.715044
v -0.910144 0.324760 0.661258
v -0.809017 0.375000 0.587785
v -0.707890 0.324760 0.514312
v -0.633860 0.187500 0.460526
v -0.606763 0.000000 0.440839
v -0.633860 -0.187500 0.460526
v -0.707890 -0.324760 0.514312
v -0.809017 -0.375000 0.587785
v -0.910144 -0.324760 0.661258
v -0.984175 -0.187500 0.715044
v -0.386271 0.000000 1.188821
v -0.375921 0.187500 1.156966
v -0.347644 0.324760 1.069939
v -0.309017 0.375000 0.951056
v -0.270390 0.324760 0.832174
v -0.242113 0.187500 0.745147
v -0.231763 0.000000 0.713292
v -0.242113 -0.187500 0.745147
v -0.270390 -0.324760 0.832174
v -0.309017 -0.375000 0.951056
v -0.347644 -0.324760 1.069939
v -0.375921 -0.187500 1.156966
v 0.386271 0.000000 1.188821
v 0.375921 0.187500 1.156966
v 0.347644 0.324760 1.069939
v 0.309017 0.375000 0.951056
v 0.270390 0.324760 0.832174
v 0.242113 0.187500 0.745147
v 0.231763 0.000000 0.713292
v 0.242113 -0.187500 0.745147
v 0.270390 -0.324760 0.832174
v 0.309017 -0.375000 0.951056
v 0.347644 -0.324760 1.069939
v 0.375921 -0.187500 1.156966
v 1.011271 0.000000 0.734732
v 0.984174 0.187500 0.715045
v 0.910144 0.324760 0.661259
v 0.809017 0.375000 0.587786
v 0.707890 0.324760 0.514312
v 0.633859 0.187500 0.460526
v 0.606763 0.000000 0.440839
v 0.633859 -0.187500 0.460526
v 0.707890 -0.324760 0.514312
v 0.809017 -0.375000 0.587786
v 0.910144 -0.324760 0.661259
v 0.984174 -0.187500 0.715045
vn 0.9376 0.1675 -0.3047
vn 0.8032 0.5355 -0.2610
vn 0.3702 0.9211 -0.1203
vn -0.3702 0.9211 0.1203
vn -0.8032 0.5355 0.2610
vn -0.9376 0.1675 0.3047
vn -0.9376 -0.1675 0.3047
vn -0.8032 -0.5355 0.2610
vn -0.3702 -0.9211 0.1203
vn 0.3702 -0.9211 -0.1203
vn 0.8032 -0.5355 -0.2610
vn 0.9376 -0.1675 -0.3047
vn 0.5795 0.1675 -0.7976
vn 0.4964 0.5355 -0.6833
vn 0.2288 0.9211 -0.3149
vn -0.2288 0.9211 0.3149
vn -0.4964 0.5355 0.6833
vn -0.5795 0.1675 0.7976
vn -0.5795 -0.1675 0.7976
vn -0.4964 -0.5355 0.6833
vn -0.2288 -0.9211 0.3149
vn 0.2288 -0.9211 -0.3149
vn 0.4964 -0.5355 -0.6833
vn 0.5795 -0.1675 -0.7976
vn -0.0000 0.1675 -0.9859
vn -0.0000 0.5355 -0.8446
vn -0.0000 0.9211 -0.3893
vn -0.0000 0.9211 0.3893
vn -0.0000 0.5355 0.8446
vn -0.0000 0.1675 0.9859
vn -0.0000 -0.1675 0.9859
vn -0.0000 -0.5355 0.8446
vn -0.0000 -0.9211 0.3893
vn -0.0000 -0.9211 -0.3893
vn -0.0000 -0.5355 -0.8446
vn -0.0000 -0.1675 -0.9859
vn -0.5795 0.1675 -0.7976
vn -0.4964 0.5355 -0.6833
vn -0.2288 0.9211 -0.3149
vn 0.2288 0.9211 0.3149
vn 0.4964 0.5355 0.6833
vn 0.5795 0.1675 0.7976
vn 0.5795 -0.1675 0.7976
vn 0.4964 -0.5355 0.6833
vn 0.2288 -0.9211 0.3149
vn -0.2288 -0.9211 -0.3149
vn -0.4964 -0.5355 -0.6833
vn -0.5795 -0.1675 -0.7976
vn -0.9376 0.1675 -0.3047
vn -0.8032 0.5355 -0.2610
vn -0.3702 0.9211 -0.1203
vn 0.3702 0.9211 0.1203
vn 0.8032 0.5355 0.2610
vn 0.9376 0.1675 0.3047
vn 0.9376 -0.1675 0.3047
vn 0.8032 -0.5355 0.2610
vn 0.3702 -0.9211 0.1203
vn -0.3702 -0.9211 -0.1203
vn -0.8032 -0.5355 -0.2610
vn -0.9376 -0.1675 -0.3047
vt 0.600000 0.500000
vt 0.700000 0.500000
vt 0.700000 0.583333
vt 0.600000 0.583333
vt 0.700000 0.666667
vt 0.600000 0.666667
vt 0.700000 0.750000
vt 0.600000 0.750000
vt 0.700000 0.833333
vt 0.600000 0.833333
vt 0.700000 0.916667
vt 0.600000 0.916667
vt 0.700000 1.000000
vt 0.600000 1.000000
vt 0.600000 0.000000
vt 0.700000 0.000000
vt 0.700000 0.083333
vt 0.600000 0.083333
vt 0.700000 0.166667
vt 0.600000 0.166667
vt 0.700000 0.250000
vt 0.600000 0.250000
vt 0.700000 0.333333
vt 0.600000 0.333333
vt 0.700000 0.416667
vt 0.600000 0.416667
vt 0.800000 0.500000
vt 0.800000 0.583333
vt 0.800000 0.666667
vt 0.800000 0.750000
vt 0.800000 0.833333
vt 0.800000 0.916667
vt 0.800000 1.000000
vt 0.800000 0.000000
vt 0.800000 0.083333
vt 0.800000 0.166667
vt 0.800000 0.250000
vt 0.800000 0.333333
vt 0.800000 0.416667
vt 0.900000 0.500000
vt 0.900000 0.583333
vt 0.900000 0.666667
vt 0.900000 0.750000
vt 0.900000 0.833333
vt 0.900000 0.916667
vt 0.900000 1.000000
vt 0.900000 0.000000
vt 0.900000 0.083333
vt 0.900000 0.166667
vt 0.900000 0.250000
vt 0.900000 0.333333
vt 0.900000 0.416667
vt 1.000000 0.500000
vt 1.000000 0.583333
vt 1.000000 0.666667
vt 1.000000 0.750000
vt 1.000000 0.833333
vt 1.000000 0.916667
vt 1.000000 1.000000
vt 1.000000 0.000000
vt 1.000000 0.083333
vt 1.000000 0.166667
vt 1.000000 0.250000
vt 1.000000 0.333333
vt 1.000000 0.416667
vt -0.000000 0.500000
vt 0.100000 0.500000
vt 0.100000 0.583333
vt -0.000000 0.583333
vt 0.100000 0.666667
vt -0.000000 0.666667
vt 0.100000 0.750000
vt -0.000000 0.750000
vt 0.100000 0.833333
vt -0.000000 0.833333
vt 0.100000 0.916667
vt -0.000000 0.916667
vt 0.100000 1.000000
vt -0.000000 1.000000
vt -0.000000 0.000000
vt 0.100000 0.000000
vt 0.100000 0.083333
vt -0.000000 0.083333
vt 0.100000 0.166667
vt -0.000000 0.166667
vt 0.100000 0.250000
vt -0.000000 0.250000
vt 0.100000 0.333333
vt -0.000000 0.333333
vt 0.100000 0.416667
vt -0.000000 0.416667
vt 0.200000 0.500000
vt 0.200000 0.583333
vt 0.200000 0.666667
vt 0.200000 0.750000
vt 0.200000 0.833333
vt 0.200000 0.916667
vt 0.200000 1.000000
vt 0.200000 0.000000
vt 0.200000 0.083333
vt 0.200000 0.166667
vt 0.200000 0.250000
vt 0.200000 0.333333
vt 0.200000 0.416667
vt 0.300000 0.500000
vt 0.300000 0.583333
vt 0.300000 0.666667
vt 0.300000 0.750000
vt 0.300000 0.833333
vt 0.300000 0.916667
vt 0.300000 1.000000
vt 0.300000 0.000000
vt 0.300000 0.083333
vt 0.300000 0.166667
vt 0.300000 0.250000
vt 0.300000 0.333333
vt 0.300000 0.416667
vt 0.400000 0.500000
vt 0.400000 0.583333
vt 0.400000 0.666667
vt 0.400000 0.750000
vt 0.400000 0.833333
vt 0.400000 0.916667
vt 0.400000 1.000000
vt 0.400000 0.000000
vt 0.400000 0.083333
vt 0.400000 0.166667
vt 0.400000 0.250000
vt 0.400000 0.333333
vt 0.400000 0.416667
vt 0.500000 0.500000
vt 0.500000 0.583333
vt 0.500000 0.666667
vt 0.500000 0.750000
vt 0.500000 0.833333
vt 0.500000 0.916667
vt 0.500000 1.000000
vt 0.500000 0.000000
vt 0.500000 0.083333
vt 0.500000 0.166667
vt 0.500000 0.250000
vt 0.500000 0.333333
vt 0.500000 0.416667
s 0
f 43/64/81 55/65/81 56/66/81 44/67/81
f 44/67/82 56/66/82 57/68/82 45/69/82
f 45/69/83 57/68/83 58/70/83 46/71/83
f 46/71/84 58/70/84 59/72/84 47/73/84
f 47/73/85 59/72/85 60/74/85 48/75/85
f 48/75/86 60/74/86 61/76/86 49/77/86
f 49/78/87 61/79/87 62/80/87 50/81/87
f 50/81/88 62/80/88 63/82/88 51/83/88
f 51/83/89 63/82/89 64/84/89 52/85/89
f 52/85/90 64/84/90 65/86/90 53/87/90
f 53/87/91 65/86/91 66/88/91 54/89/91
f 54/89/92 66/88/92 55/65/92 43/64/92
f 55/65/93 67/90/93 68/91/93 56/66/93
f 56/66/94 68/91/94 69/92/94 57/68/94
f 57/68/95 69/92/95 70/93/95 58/70/95
f 58/70/96 70/93/96 71/94/96 59/72/96
f 59/72/97 71/94/97 72/95/97 60/74/97
f 60/74/98 72/95/98 73/96/98 61/76/98
f 61/79/99 73/97/99 74/98/99 62/80/99
f 62/80/100 74/98/100 75/99/100 63/82/100
f 63/82/101 75/99/101 76/100/101 64/84/101
f 64/84/102 76/100/102 77/101/102 65/86/102
f 65/86/103 77/101/103 78/102/103 66/88/103
f 66/88/104 78/102/104 67/90/104 55/65/104
f 67/90/105 79/103/105 80/104/105 68/91/105
f 68/91/106 80/104/106 81/105/106 69/92/106
f 69/92/107 81/105/107 82/106/107 70/93/107
f 70/93/108 82/106/108 83/107/108 71/94/108
f 71/94/109 83/107/109 84/108/109 72/95/109
f 72/95/110 84/108/110 85/109/110 73/96/110
f 73/97/111 85/110/111 86/111/111 74/98/111
f 74/98/112 86/111/112 87/112/112 75/99/112
f 75/99/113 87/112/113 88/113/113 76/100/113
f 76/100/114 88/113/114 89/114/114 77/101/114
f 77/101/115 89/114/115 90/115/115 78/102/115
f 78/102/116 90/115/116 79/103/116 67/90/116
f 79/103/117 91/116/117 92/117/117 80/104/117
f 80/104/118 92/117/118 93/118/118 81/105/118
f 81/105/119 93/118/119 94/119/119 82/106/119
f 82/106/120 94/119/120 95/120/120 83/107/120
f 83/107/121 95/120/121 96/121/121 84/108/121
f 84/108/122 96/121/122 97/122/122 85/109/122
f 85/110/123 97/123/123 98/124/123 86/111/123
f 86/111/124 98/124/124 99/125/124 87/112/124
f 87/112/125 99/125/125 100/126/125 88/113/125
f 88/113/126 100/126/126 101/127/126 89/114/126
f 89/114/127 101/127/127 102/128/127 90/115/127
f 90/115/128 102/128/128 91/116/128 79/103/128
f 91/129/129 103/130/129 104/131/129 92/132/129
f 92/132/130 104/131/130 105/133/130 93/134/130
f 93/134/131 105/133/131 106/135/131 94/136/131
f 94/136/132 106/135/132 107/137/132 95/138/132
f 95/138/133 107/137/133 108/139/133 96/140/133
f 96/140/134 108/139/134 109/141/134 97/142/134
f 97/143/135 109/144/135 110/145/135 98/146/135
f 98/146/136 110/145/136 111/147/136 99/148/136
f 99/148/137 111/147/137 112/149/137 100/150/137
f 100/150/138 112/149/138 113/151/138 101/152/138
f 101/152/139 113/151/139 114/153/139 102/154/139
f 102/154/140 114/153/140 103/130/140 91/129/140
f 103/130/86 115/155/86 116/156/86 104/131/86
f 104/131/85 116/156/85 117/157/85 105/133/85
f 105/133/84 117/157/84 118/158/84 106/135/84
f 106/135/83 118/158/83 119/159/83 107/137/83
f 107/137/82 119/159/82 120/160/82 108/139/82
f 108/139/81 120/160/81 121/161/81 109/141/81
f 109/144/92 121/162/92 122/163/92 110/145/92
f 110/145/91 122/163/91 123/164/91 111/147/91
f 111/147/90 123/164/90 124/165/90 112/149/90
f 112/149/89 124/165/89 125/166/89 113/151/89
f 113/151/88 125/166/88 126/167/88 114/153/88
f 114/153/87 126/167/87 115/155/87 103/130/87
f 115/155/98 127/168/98 128/169/98 116/156/98
f 116/156/97 128/169/97 129/170/97 117/157/97
f 117/157/96 129/170/96 130/171/96 118/158/96
f 118/158/95 130/171/95 131/172/95 119/159/95
f 119/159/94 131/172/94 132/173/94 120/160/94
f 120/160/93 132/173/93 133/174/93 121/161/93
f 121/162/104 133/175/104 134/176/104 122/163/104
f 122/163/103 134/176/103 135/177/103 123/164/103
f 123/164/102 135/177/102 136/178/102 124/165/102
f 124/165/101 136/178/101 137/179/101 125/166/101
f 125/166/100 137/179/100 138/180/100 126/167/100
f 126/167/99 138/180/99 127/168/99 115/155/99
f 127/168/110 139/181/110 140/182/110 128/169/110
f 128/169/109 140/182/109 141/183/109 129/170/109
f 129/170/108 141/183/108 142/184/108 130/171/108
f 130/171/107 142/184/107 143/185/107 131/172/107
f 131/172/106 143/185/106 144/186/106 132/173/106
f 132/173/105 144/186/105 145/187/105 133/174/105
f 133/175/116 145/188/116 146/189/116 134/176/116
f 134/176/115 146/189/115 147/190/115 135/177/115
f 135/177/114 147/190/114 148/191/114 136/178/114
f 136/178/113 148/191/113 149/192/113 137/179/113
f 137/179/112 149/192/112 150/193/112 138/180/112
f 138/180/111 150/193/111 139/181/111 127/168/111
f 139/181/122 151/194/122 152/195/122 140/182/122
f 140/182/121 152/195/121 153/196/121 141/183/121
f 141/183/120 153/196/120 154/197/120 142/184/120
f 142/184/119 154/197/119 155/198/119 143/185/119
f 143/185/118 155/198/118 156/199/118 144/186/118
f 144/186/117 156/199/117 157/200/117 145/187/117
f 145/188/128 157/201/128 158/202/128 146/189/128
f 146/189/127 158/202/127 159/203/127 147/190/127
f 147/190/126 159/203/126 160/204/126 148/191/126
f 148/191/125 160/204/125 161/205/125 149/192/125
f 149/192/124 161/205/124 162/206/124 150/193/124
f 150/193/123 162/206/123 151/194/123 139/181/123
f 151/194/134 43/64/134 44/67/134 152/195/134
f 152/195/133 44/67/133 45/69/133 153/196/133
f 153/196/132 45/69/132 46/71/132 154/197/132
f 154/197/131 46/71/131 47/73/131 155/198/131
f 155/198/130 47/73/130 48/75/130 156/199/130
f 156/199/129 48/75/129 49/77/129 157/200/129
f 157/201/140 49/78/140 50/81/140 158/202/140
f 158/202/139 50/81/139 51/83/139 159/203/139
f 159/203/138 51/83/138 52/85/138 160/204/138
f 160/204/137 52/85/137 53/87/137 161/205/137
f 161/205/136 53/87/136 54/89/136 162/206/136
f 162/206/135 54/89/135 43/64/135 151/194/135
