# Blender 4.3.2
# www.blender.org
mtllib Quote display.mtl
o Cube
v 1.000000 0.150000 -1.000000
v 1.000000 -0.150000 -1.000000
v 1.000000 0.150000 1.000000
v 1.000000 -0.150000 1.000000
v -1.000000 0.150000 -1.000000
v -1.000000 -0.150000 -1.000000
v -1.000000 0.150000 1.000000
v -1.000000 -0.150000 1.000000
v -0.850000 0.150000 0.850000
v 0.850000 0.150000 -0.850000
v -0.850000 0.150000 -0.850000
v 0.850000 0.150000 0.850000
v 0.850000 -0.150000 0.850000
v -0.850000 -0.150000 -0.850000
v 0.850000 -0.150000 -0.850000
v -0.850000 -0.150000 0.850000
vn -0.0000 1.0000 -0.0000
vn -0.0000 -0.0000 1.0000
vn -1.0000 -0.0000 -0.0000
vn -0.0000 -1.0000 -0.0000
vn 1.0000 -0.0000 -0.0000
vn -0.0000 -0.0000 -1.0000
vt 0.875000 0.500000
vt 0.875000 0.750000
vt 0.625000 0.750000
vt 0.643750 0.731250
vt 0.856250 0.731250
vt 0.856250 0.518750
vt 0.625000 0.500000
vt 0.643750 0.518750
vt 0.375000 0.750000
vt 0.625000 1.000000
vt 0.375000 1.000000
vt 0.375000 0.000000
vt 0.625000 0.000000
vt 0.625000 0.250000
vt 0.375000 0.250000
vt 0.143750 0.731250
vt 0.125000 0.750000
vt 0.125000 0.500000
vt 0.375000 0.500000
vt 0.356250 0.731250
vt 0.356250 0.518750
vt 0.143750 0.518750
vt 0.481250 0.250000
vt 0.518750 0.250000
vt 0.518750 0.000000
vt 0.481250 0.000000
vt 0.481250 0.500000
vt 0.518750 0.500000
vt 0.518750 0.750000
vt 0.481250 0.750000
vt 0.518750 1.000000
vt 0.481250 1.000000
s 0
usemtl Material
f 5/1/1 7/2/1 3/3/1 12/4/1 9/5/1 11/6/1
f 3/3/1 1/7/1 5/1/1 11/6/1 10/8/1 12/4/1
f 4/9/2 3/3/2 7/10/2 8/11/2
f 8/12/3 7/13/3 5/14/3 6/15/3
f 16/16/4 8/17/4 6/18/4 2/19/4 4/9/4 13/20/4 15/21/4 14/22/4
f 4/9/4 8/17/4 16/16/4 13/20/4
f 2/19/5 1/7/5 3/3/5 4/9/5
f 6/15/6 5/14/6 1/7/6 2/19/6
f 14/23/5 11/24/5 9/25/5 16/26/5
f 15/27/2 10/28/2 11/24/2 14/23/2
f 12/29/3 10/28/3 15/27/3 13/30/3
f 9/31/6 12/29/6 13/30/6 16/32/6
