# Blender 4.3.2
# www.blender.org
mtllib V.mtl
o Curve.002
v 0.038355 0.000000 -0.017032
v 0.042190 0.000000 -0.025767
v 0.045493 0.000000 -0.026268
v 0.051033 0.000000 -0.025096
v 0.051133 0.000000 -0.023498
v 0.046446 0.000000 -0.014657
v 0.043995 0.000000 -0.008905
v 0.042994 0.000000 -0.004538
v 0.042749 0.000000 -0.002407
v 0.040085 0.000000 -0.002407
v 0.035397 0.000000 -0.001662
v 0.034012 0.000000 -0.002940
v 0.032627 0.000000 -0.009118
v 0.030070 0.000000 -0.016787
v 0.029420 0.000000 -0.022220
v 0.030805 0.000000 -0.023019
v 0.037198 0.000000 -0.023221
v 0.037645 0.000000 -0.022720
v 0.037695 0.000000 -0.018353
v 0.038355 0.010000 -0.017032
v 0.042190 0.010000 -0.025767
v 0.045493 0.010000 -0.026268
v 0.051033 0.010000 -0.025096
v 0.051133 0.010000 -0.023498
v 0.046446 0.010000 -0.014657
v 0.043995 0.010000 -0.008905
v 0.042994 0.010000 -0.004538
v 0.042749 0.010000 -0.002407
v 0.040085 0.010000 -0.002407
v 0.035397 0.010000 -0.001662
v 0.034012 0.010000 -0.002940
v 0.032627 0.010000 -0.009118
v 0.030070 0.010000 -0.016787
v 0.029420 0.010000 -0.022220
v 0.030805 0.010000 -0.023019
v 0.037198 0.010000 -0.023221
v 0.037645 0.010000 -0.022720
v 0.037695 0.010000 -0.018353
vn -0.0000 -1.0000 -0.0000
vn -0.0000 1.0000 -0.0000
vn 0.9747 -0.0000 0.2235
vn 0.9980 -0.0000 -0.0626
vn -0.9487 -0.0000 0.3163
vn -0.1499 -0.0000 -0.9887
vn 0.9999 -0.0000 -0.0115
vn 0.9934 -0.0000 0.1143
vn 0.8835 -0.0000 0.4685
vn -0.9929 -0.0000 0.1188
vn -0.6782 -0.0000 0.7349
vn -0.0316 -0.0000 -0.9995
vn 0.9200 -0.0000 0.3919
vn 0.2069 -0.0000 -0.9784
vn 0.1571 -0.0000 0.9876
vn -0.9758 -0.0000 0.2188
vn -0.9156 -0.0000 -0.4021
vn 0.7456 -0.0000 -0.6664
vn 0.8947 -0.0000 -0.4467
vn -0.0000 -0.0000 1.0000
vn -0.4996 -0.0000 -0.8662
vt 0.055556 0.000000
vt 0.111111 0.000000
vt 0.166667 0.000000
vt 0.000000 0.000000
vt 0.222222 0.000000
vt 0.277778 0.000000
vt 0.833333 0.000000
vt 0.888889 0.000000
vt 0.944444 0.000000
vt 0.777778 0.000000
vt 1.000000 0.000000
vt 0.722222 0.000000
vt 0.666667 0.000000
vt 0.333333 0.000000
vt 0.611111 0.000000
vt 0.388889 0.000000
vt 0.444444 0.000000
vt 0.555556 0.000000
vt 0.500000 0.000000
s 0
usemtl SVGMat
f 2/1/1 3/2/1 4/3/1
f 1/4/1 2/1/1 4/3/1
f 1/4/1 4/3/1 5/5/1
f 1/4/1 5/5/1 6/6/1
f 16/7/1 17/8/1 18/9/1
f 15/10/1 16/7/1 18/9/1
f 15/10/1 18/9/1 19/11/1
f 14/12/1 15/10/1 19/11/1
f 14/12/1 19/11/1 1/4/1
f 14/12/1 1/4/1 6/6/1
f 13/13/1 14/12/1 6/6/1
f 13/13/1 6/6/1 7/14/1
f 12/15/1 13/13/1 7/14/1
f 12/15/1 7/14/1 8/16/1
f 12/15/1 8/16/1 9/17/1
f 11/18/1 12/15/1 10/19/1
f 10/19/1 12/15/1 9/17/1
f 21/1/2 23/3/2 22/2/2
f 20/4/2 23/3/2 21/1/2
f 20/4/2 24/5/2 23/3/2
f 20/4/2 25/6/2 24/5/2
f 35/7/2 37/9/2 36/8/2
f 34/10/2 37/9/2 35/7/2
f 34/10/2 38/11/2 37/9/2
f 33/12/2 38/11/2 34/10/2
f 33/12/2 20/4/2 38/11/2
f 33/12/2 25/6/2 20/4/2
f 32/13/2 25/6/2 33/12/2
f 32/13/2 26/14/2 25/6/2
f 31/15/2 26/14/2 32/13/2
f 31/15/2 27/16/2 26/14/2
f 31/15/2 28/17/2 27/16/2
f 30/18/2 29/19/2 31/15/2
f 29/19/2 28/17/2 31/15/2
f 8/16/3 7/14/3 26/14/3 27/16/3
f 5/5/4 4/3/4 23/3/4 24/5/4
f 14/12/5 13/13/5 32/13/5 33/12/5
f 3/2/6 2/1/6 21/1/6 22/2/6
f 19/11/7 18/9/7 37/9/7 38/11/7
f 9/17/8 8/16/8 27/16/8 28/17/8
f 6/6/9 5/5/9 24/5/9 25/6/9
f 15/10/10 14/12/10 33/12/10 34/10/10
f 12/15/11 11/18/11 30/18/11 31/15/11
f 17/8/12 16/7/12 35/7/12 36/8/12
f 7/14/13 6/6/13 25/6/13 26/14/13
f 4/3/14 3/2/14 22/2/14 23/3/14
f 11/18/15 10/19/15 29/19/15 30/18/15
f 13/13/16 12/15/16 31/15/16 32/13/16
f 2/1/17 1/4/17 20/4/17 21/1/17
f 18/9/18 17/8/18 36/8/18 37/9/18
f 1/4/19 19/11/19 38/11/19 20/4/19
f 10/19/20 9/17/20 28/17/20 29/19/20
f 16/7/21 15/10/21 34/10/21 35/7/21
